<svg width="187" height="179" viewBox="0 0 187 179" fill="none" xmlns="http://www.w3.org/2000/svg">
<path d="M97.6353 64.8476C97.6353 68.5856 94.5405 71.6163 90.7312 71.6163C86.9218 71.6163 83.827 68.5856 83.827 64.8476C83.827 61.113 86.9218 58.0789 90.7312 58.0789C94.5405 58.0789 97.6353 61.113 97.6353 64.8476Z" fill="#140522"/>
<path d="M70.0188 64.8476C70.0188 68.5856 66.924 71.6163 63.1146 71.6163C59.3052 71.6163 56.2104 68.5856 56.2104 64.8476C56.2104 61.113 59.3052 58.0789 63.1146 58.0789C66.924 58.0789 70.0188 61.113 70.0188 64.8476Z" fill="#140522"/>
<path d="M76.9221 98.6993C72.946 98.6993 68.9696 97.731 65.0221 95.7958C63.3161 94.9596 62.625 92.9269 63.478 91.2547C64.3293 89.5838 66.3991 88.9049 68.11 89.7409C74.04 92.6494 79.8046 92.6494 85.7346 89.7409C87.442 88.9049 89.5136 89.5838 90.3666 91.2547C91.2192 92.9269 90.5281 94.9596 88.8224 95.7958C84.8747 97.731 80.8986 98.6993 76.9221 98.6993Z" fill="#140522"/>
<path d="M76.9232 120.805C53.436 120.805 34.3284 97.7689 34.3284 69.453C34.3284 67.8123 34.3922 66.1895 34.5172 64.5897L41.401 65.1055C41.2898 66.5364 41.2325 67.9873 41.2325 69.453C41.2325 94.0377 57.2422 114.036 76.9232 114.036C96.6007 114.036 112.61 94.0377 112.61 69.453C112.61 65.8125 112.26 62.2034 111.569 58.725C111.141 56.5617 110.571 54.417 109.879 52.3462L116.44 50.2377C117.222 52.5743 117.862 54.9954 118.345 57.4328C119.12 61.3343 119.514 65.3796 119.514 69.453C119.514 97.7689 100.407 120.805 76.9232 120.805Z" fill="#140522"/>
<path d="M95.8992 83.8846H88.9716C83.6281 83.8846 79.02 80.7514 76.9532 76.26C74.8868 80.7514 70.2786 83.8846 64.9351 83.8846H58.0075C50.7426 83.8846 44.833 78.0909 44.833 70.9686V66.7794H42.4428C40.5345 66.7794 38.9907 65.2639 38.9907 63.395C38.9907 61.5259 40.5345 60.0107 42.4428 60.0107H48.2851C50.1931 60.0107 51.7372 61.5259 51.7372 63.395V70.9686C51.7372 74.3593 54.5485 77.1159 58.0075 77.1159H64.9351C68.3941 77.1159 71.2055 74.3593 71.2055 70.9686V67.2322C71.2055 65.3631 72.7496 63.8479 74.6576 63.8479H79.2492C81.1571 63.8479 82.7013 65.3631 82.7013 67.2322V70.9686C82.7013 74.3593 85.5126 77.1159 88.9716 77.1159H95.8992C99.3582 77.1159 102.17 74.3593 102.17 70.9686V63.395C102.17 61.5259 103.714 60.0107 105.622 60.0107H109.613C111.521 60.0107 113.065 61.5259 113.065 63.395C113.065 65.2639 111.521 66.7794 109.613 66.7794H109.074V70.9686C109.074 78.0909 103.164 83.8846 95.8992 83.8846Z" fill="#140522"/>
<path d="M37.9659 68.232C36.6849 68.2337 35.4545 67.5314 34.8577 66.3266C34.025 64.6459 34.7396 62.62 36.4556 61.8037C39.655 60.2801 46.6872 45.2075 51.2485 32.0864C51.8181 30.4521 53.5476 29.5085 55.2667 29.8754C56.9827 30.2504 58.1388 31.8336 57.9469 33.5488C57.9503 33.5488 57.8896 35.8708 60.7348 38.6568C64.9522 42.7833 77.3783 49.4776 112.995 47.9143C114.866 47.8301 116.514 49.2759 116.598 51.145C116.683 53.0122 115.21 54.5937 113.305 54.6763C83.524 55.9884 64.0453 52.0355 55.3778 42.9617C55.1759 42.7502 54.9802 42.5369 54.7982 42.3254C51.0189 51.9231 44.9308 65.292 39.4693 67.8915C38.9839 68.123 38.4716 68.232 37.9659 68.232Z" fill="#140522"/>
<path d="M8.80199 129.702C7.57478 129.702 6.38795 129.061 5.76451 127.931C-0.485822 116.614 -1.63882 108.91 2.23476 104.372C5.44415 100.618 10.9392 100.539 14.8835 101.097C15.5004 89.5923 20.267 67.4106 29.3591 33.676C34.0891 20.0479 37.1432 14.8309 41.5394 12.7766C44.0204 11.6185 46.5252 11.7539 48.7266 12.2778C54.1405 6.69563 68.0669 -0.873137 83.2743 0.0822653C95.8657 0.903309 113.426 7.90181 125.576 36.5862C131.85 56.0114 136.057 71.7964 138.187 83.7756C138.43 85.1503 140.058 95.0855 140.904 100.254C144.164 100.284 148.904 101.183 152.299 105.463C153.472 106.94 153.199 109.066 151.695 110.212C150.189 111.369 148.024 111.092 146.851 109.621C144.036 106.071 138.858 107.169 138.808 107.188C137.877 107.41 136.889 107.235 136.087 106.712C135.285 106.19 134.745 105.364 134.594 104.432C134.594 104.432 131.715 86.7962 131.384 84.9354C129.308 73.2523 125.175 57.7648 119.097 38.9032C110.534 18.7273 98.2929 7.84563 82.8159 6.83608C68.0469 5.89557 54.8451 14.6756 52.9371 17.8931C52.0945 19.3125 50.328 19.9271 48.7605 19.3687C46.1376 18.4217 45.1396 18.592 44.5092 18.8878C41.6437 20.2263 38.5827 28.104 35.9633 35.6329C25.9139 72.9613 21.1135 96.404 21.7707 105.076C21.8584 106.203 21.3627 107.301 20.4527 107.995C19.5424 108.692 18.3321 108.891 17.2433 108.54C14.0947 107.539 8.96354 107.033 7.52403 108.722C7.06905 109.26 5.1238 112.559 11.836 124.705C12.7429 126.351 12.1191 128.403 10.4435 129.296C9.92115 129.57 9.35812 129.702 8.80199 129.702Z" fill="#140522"/>
<path d="M10.8111 172.645C9.13894 172.648 7.66905 171.451 7.40634 169.779C7.26446 168.867 4.04851 147.331 16.3162 133.311C22.9542 125.726 32.717 121.882 45.3384 121.882C46.0195 121.882 46.6872 122.081 47.2533 122.451C58.1691 129.587 66.8432 134.019 76.2725 134.042H76.4071C78.312 134.042 79.8561 135.556 79.8592 137.423C79.8627 139.313 78.3389 140.827 76.3433 140.81C76.3163 140.81 76.296 140.81 76.2691 140.81H75.9756C75.9218 140.81 75.8714 140.81 75.8172 140.807C65.1171 140.662 55.7385 136.058 44.3139 128.661C34.3149 128.853 26.6724 131.89 21.5785 137.694C11.3742 149.324 14.199 168.559 14.2294 168.754C14.5159 170.599 13.2214 172.324 11.3369 172.608C11.1619 172.635 10.9865 172.645 10.8111 172.645Z" fill="#140522"/>
<path d="M69.7694 160.34C68.7545 160.34 67.7534 159.907 67.0723 159.071L41.9944 128.37C40.801 126.913 41.0402 124.781 42.5305 123.614C44.0238 122.434 46.1948 122.682 47.3813 124.14L72.4596 154.84C73.653 156.298 73.4138 158.43 71.9235 159.596C71.2863 160.099 70.5244 160.34 69.7694 160.34Z" fill="#140522"/>
<path d="M66.3543 167.357C66.0982 167.357 65.8386 167.33 65.5756 167.271L48.6694 163.453C47.7421 163.245 46.9468 162.67 46.4645 161.863C45.9857 161.06 45.8645 160.095 46.1307 159.203L47.7118 153.921H36.5363C35.6702 153.921 34.8372 153.601 34.2003 153.029C29.3526 148.657 28.6076 144.076 28.8368 140.999C29.5718 131.094 40.7776 123.323 42.0517 122.471C43.6228 121.42 45.77 121.813 46.8422 123.357C47.9175 124.897 47.5164 127.002 45.9453 128.06C43.2417 129.881 36.1318 135.846 35.7206 141.501C35.5756 143.504 36.3106 145.361 37.9658 147.153H52.3237C53.4125 147.153 54.434 147.655 55.0881 148.508C55.7385 149.364 55.9408 150.468 55.6374 151.489L53.7867 157.663L67.1266 160.674C68.9841 161.094 70.1437 162.911 69.7156 164.732C69.348 166.299 67.9254 167.357 66.3543 167.357Z" fill="#140522"/>
<path d="M73.7407 175.534H160.008L184 120.2H97.7327L73.7407 175.534Z" fill="#140522" stroke="#140522" stroke-width="5.34196" stroke-miterlimit="10" stroke-linecap="round" stroke-linejoin="round"/>
<path d="M35.8715 175.534H73.7407Z" fill="#140522"/>
<path d="M35.8715 175.534H73.7407" stroke="#140522" stroke-width="5.34196" stroke-miterlimit="10" stroke-linecap="round" stroke-linejoin="round"/>
</svg>
