<svg width="59" height="14" viewBox="0 0 59 14" fill="none" xmlns="http://www.w3.org/2000/svg">
<path d="M7.472 12.096L0.928 8.768L0.896 7.648L7.456 4L8.272 5.584L3.664 8.064L3.68 8.16L8.336 10.448L7.472 12.096ZM45.7656 13.904L43.8776 13.12L48.8056 0.176L50.6616 0.992L45.7656 13.904ZM52.3854 12.096L51.5214 10.448L56.1774 8.16L56.1934 8.064L51.5854 5.584L52.4014 4L58.9614 7.648L58.9294 8.768L52.3854 12.096Z" fill="#DE296B"/>
<path d="M13.9964 12L13.9004 11.488C14.135 11.3387 14.3857 11.2053 14.6524 11.088C14.9297 10.96 15.207 10.8427 15.4844 10.736L15.5004 12H13.9964ZM16.1724 12L16.2204 10.8L18.4284 11.248L18.4124 12H16.1724ZM23.2444 12L23.1484 11.488C23.383 11.3387 23.6337 11.2053 23.9004 11.088C24.167 10.96 24.4444 10.8427 24.7324 10.736L24.7484 12H23.2444ZM26.0924 12L26.1404 10.8L28.3484 11.248L28.3324 12H26.0924ZM15.2924 12L15.5804 1.6H18.4764L16.8284 3.024L17.1644 6.528L17.0684 12H15.2924ZM19.8844 12.112L16.3484 2.32L18.4604 1.6L21.5804 10.32L21.7244 11.744L19.8844 12.112ZM21.7244 11.744L20.5884 11.424L24.1884 1.6L25.2764 2.192L21.7244 11.744ZM24.5244 12L24.4604 6.528L24.7484 2.944L24.1884 1.6H26.6844L26.8444 12H24.5244ZM16.4444 2.8L14.2364 2.352L14.2524 1.6H16.4924L16.4444 2.8ZM26.4284 2.864L26.4124 1.6H27.9164L28.0124 2.112C27.7777 2.25067 27.527 2.384 27.2604 2.512C26.9937 2.62933 26.7164 2.74667 26.4284 2.864ZM32.1811 7.936L32.1011 6.432C32.3891 6.528 32.6718 6.59733 32.9491 6.64C33.2371 6.68267 33.4931 6.704 33.7171 6.704C34.1225 6.704 34.4638 6.65067 34.7411 6.544C35.0185 6.42667 35.2371 6.272 35.3971 6.08C35.5571 5.87733 35.6745 5.65333 35.7491 5.408C35.8238 5.16267 35.8611 4.90667 35.8611 4.64C35.8611 4.224 35.7811 3.83467 35.6211 3.472C35.4718 3.09867 35.2318 2.80533 34.9011 2.592L32.4851 2.848L29.0771 1.472L34.1811 1.344C35.0771 1.344 35.8345 1.49867 36.4531 1.808C37.0718 2.10667 37.5465 2.50133 37.8771 2.992C38.2078 3.48267 38.3731 4.016 38.3731 4.592C38.3731 5.15733 38.2131 5.696 37.8931 6.208C37.5731 6.70933 37.1198 7.12 36.5331 7.44C35.9465 7.76 35.2531 7.92 34.4531 7.92L32.1811 7.936ZM28.9651 12L28.8691 11.488C29.1038 11.3387 29.3545 11.2053 29.6211 11.088C29.8985 10.96 30.1758 10.8427 30.4531 10.736L30.4691 12H28.9651ZM31.8611 12L31.9091 10.864L34.1171 11.184L34.1011 12H31.8611ZM30.2291 12V1.472H32.6611V12H30.2291ZM37.1251 12L37.1731 10.896L39.3811 11.184L39.3651 12H37.1251ZM30.8691 2.512L29.0611 2.288L29.0771 1.472H30.8691V2.512ZM36.1651 12L33.6531 7.296L35.9571 7.152L38.9491 12H36.1651Z" fill="black"/>
</svg>
