<svg width="343" height="32" viewBox="0 0 343 32" fill="none" xmlns="http://www.w3.org/2000/svg">
<path d="M14.812 27.216L0.0880001 19.728L0.0160001 17.208L14.776 9L16.612 12.564L6.244 18.144L6.28 18.36L16.756 23.508L14.812 27.216ZM312.438 31.284L308.19 29.52L319.278 0.395999L323.454 2.232L312.438 31.284ZM327.332 27.216L325.388 23.508L335.864 18.36L335.9 18.144L325.532 12.564L327.368 9L342.128 17.208L342.056 19.728L327.332 27.216Z" fill="#DE296B"/>
<path d="M29.4918 27L29.2758 25.848C29.8038 25.512 30.3678 25.212 30.9678 24.948C31.5918 24.66 32.2158 24.396 32.8398 24.156L32.8758 27H29.4918ZM34.3878 27L34.4958 24.3L39.4638 25.308L39.4278 27H34.3878ZM50.2998 27L50.0838 25.848C50.6118 25.512 51.1758 25.212 51.7758 24.948C52.3758 24.66 52.9998 24.396 53.6478 24.156L53.6838 27H50.2998ZM56.7078 27L56.8158 24.3L61.7838 25.308L61.7478 27H56.7078ZM32.4078 27L33.0558 3.6H39.5718L35.8638 6.804L36.6198 14.688L36.4038 27H32.4078ZM42.7398 27.252L34.7838 5.22L39.5358 3.6L46.5558 23.22L46.8798 26.424L42.7398 27.252ZM46.8798 26.424L44.3238 25.704L52.4238 3.6L54.8718 4.932L46.8798 26.424ZM53.1798 27L53.0358 14.688L53.6838 6.624L52.4238 3.6H58.0398L58.3998 27H53.1798ZM34.9998 6.3L30.0318 5.292L30.0678 3.6H35.1078L34.9998 6.3ZM57.4638 6.444L57.4278 3.6H60.8118L61.0278 4.752C60.4998 5.064 59.9358 5.364 59.3358 5.652C58.7358 5.916 58.1118 6.18 57.4638 6.444ZM76.1493 27.576C75.7413 27.552 75.3093 27.408 74.8533 27.144C74.3973 26.88 73.9653 26.52 73.5573 26.064C73.1733 25.584 72.8733 25.068 72.6573 24.516L72.2973 24.192V15.516C72.2973 14.388 72.1413 13.56 71.8293 13.032C71.5413 12.48 71.1333 12.084 70.6053 11.844C70.1493 11.868 69.6693 11.928 69.1653 12.024C68.6613 12.096 68.2413 12.192 67.9053 12.312L67.2573 16.2L64.2333 16.308C63.9453 15.564 63.7293 14.748 63.5853 13.86C63.4653 12.948 63.4293 12.072 63.4773 11.232C64.1733 10.944 64.9413 10.668 65.7812 10.404C66.6213 10.14 67.4613 9.912 68.3013 9.72C69.1413 9.504 69.9213 9.336 70.6413 9.216C71.3853 9.096 71.9853 9.036 72.4413 9.036C73.0653 9.036 73.6653 9.144 74.2413 9.36C74.8173 9.576 75.3573 9.888 75.8613 10.296C76.3653 10.68 76.7853 11.124 77.1213 11.628C77.2893 11.916 77.3973 12.324 77.4453 12.852C77.5173 13.356 77.5533 14.184 77.5533 15.336V23.04C77.5533 23.28 77.6253 23.484 77.7693 23.652C77.9373 23.796 78.1653 23.868 78.4533 23.868C78.7173 23.868 78.9933 23.844 79.2812 23.796C79.5693 23.748 79.8813 23.7 80.2173 23.652L80.5413 25.272L76.1493 27.576ZM68.9493 27.468C67.5573 27.66 66.3933 27.528 65.4573 27.072C64.5213 26.64 63.8133 26.052 63.3333 25.308C62.8533 24.54 62.6133 23.772 62.6133 23.004C62.6133 22.284 62.8293 21.552 63.2613 20.808C63.7173 20.04 64.4373 19.404 65.4213 18.9L73.3773 18.684L73.3053 20.844H72.4413C71.9133 20.796 71.3733 20.796 70.8213 20.844C70.2933 20.868 69.8013 20.952 69.3453 21.096C68.9133 21.216 68.5533 21.408 68.2653 21.672C67.9773 21.936 67.8333 22.296 67.8333 22.752C67.8333 23.016 67.8933 23.304 68.0133 23.616C68.1573 23.904 68.3493 24.144 68.5893 24.336C69.1173 24.312 69.6573 24.24 70.2093 24.12C70.7853 23.976 71.3253 23.808 71.8293 23.616C72.3333 23.424 72.7413 23.268 73.0533 23.148L73.3773 24.66L68.9493 27.468ZM83.5082 27V10.944L86.9282 9.216L88.7282 10.908V27H83.5082ZM87.0722 19.116L86.2802 16.272L92.3642 9.756C93.2042 9.42 94.0322 9.312 94.8482 9.432C95.6642 9.528 96.3602 9.804 96.9362 10.26C96.9602 10.716 96.9482 11.244 96.9002 11.844C96.8522 12.444 96.7802 13.08 96.6842 13.752C96.6122 14.4 96.4922 15.036 96.3242 15.66C96.1802 16.284 96.0242 16.848 95.8562 17.352H92.9762L92.3282 13.248C91.7282 13.632 91.1282 14.088 90.5282 14.616C89.9522 15.144 89.3642 15.78 88.7642 16.524C88.1882 17.244 87.6242 18.108 87.0722 19.116ZM80.8082 12.204L80.5562 10.476C81.4922 10.116 82.5122 9.828 83.6162 9.612C84.7442 9.396 85.8482 9.264 86.9282 9.216L87.0722 11.232L84.7322 12.672L80.8082 12.204ZM80.9522 27L80.8442 25.776C81.4442 25.416 82.1282 25.104 82.8962 24.84C83.6882 24.552 84.3842 24.336 84.9842 24.192L84.5882 27H80.9522ZM87.3962 27L88.0082 23.868C88.4882 23.94 89.0042 24.048 89.5562 24.192C90.1082 24.312 90.6482 24.468 91.1762 24.66C91.7282 24.828 92.1962 25.02 92.5802 25.236L92.4362 27H87.3962ZM100.489 27V10.944L103.909 9.216L105.709 10.8V27H100.489ZM97.8606 27L97.7526 25.776C98.3526 25.416 99.0366 25.104 99.8046 24.84C100.597 24.552 101.293 24.336 101.893 24.192L101.497 27H97.8606ZM103.261 27L103.873 23.724C104.593 23.868 105.361 24.072 106.177 24.336C107.017 24.576 107.725 24.876 108.301 25.236L108.157 27H103.261ZM97.7886 12.204L97.5366 10.476C98.4726 10.116 99.4926 9.828 100.597 9.612C101.725 9.396 102.829 9.264 103.909 9.216L104.053 11.232L101.713 12.672L97.7886 12.204ZM103.369 6.912C102.673 6.6 101.977 6.18 101.281 5.652C100.609 5.124 100.045 4.572 99.5886 3.996C99.9726 3.228 100.429 2.508 100.957 1.836C101.509 1.164 102.085 0.611998 102.685 0.179998C103.381 0.539999 104.053 1.008 104.701 1.584C105.349 2.16 105.877 2.748 106.285 3.348C105.973 4.02 105.553 4.68 105.025 5.328C104.497 5.952 103.945 6.48 103.369 6.912ZM123.364 27.576C122.956 27.552 122.524 27.408 122.068 27.144C121.612 26.88 121.18 26.52 120.772 26.064C120.388 25.584 120.088 25.068 119.872 24.516L119.512 24.192V15.516C119.512 14.388 119.356 13.56 119.044 13.032C118.756 12.48 118.348 12.084 117.82 11.844C117.364 11.868 116.884 11.928 116.38 12.024C115.876 12.096 115.456 12.192 115.12 12.312L114.472 16.2L111.448 16.308C111.16 15.564 110.944 14.748 110.8 13.86C110.68 12.948 110.644 12.072 110.692 11.232C111.388 10.944 112.156 10.668 112.996 10.404C113.836 10.14 114.676 9.912 115.516 9.72C116.356 9.504 117.136 9.336 117.856 9.216C118.6 9.096 119.2 9.036 119.656 9.036C120.28 9.036 120.88 9.144 121.456 9.36C122.032 9.576 122.572 9.888 123.076 10.296C123.58 10.68 124 11.124 124.336 11.628C124.504 11.916 124.612 12.324 124.66 12.852C124.732 13.356 124.768 14.184 124.768 15.336V23.04C124.768 23.28 124.84 23.484 124.984 23.652C125.152 23.796 125.38 23.868 125.668 23.868C125.932 23.868 126.208 23.844 126.496 23.796C126.784 23.748 127.096 23.7 127.432 23.652L127.756 25.272L123.364 27.576ZM116.164 27.468C114.772 27.66 113.608 27.528 112.672 27.072C111.736 26.64 111.028 26.052 110.548 25.308C110.068 24.54 109.828 23.772 109.828 23.004C109.828 22.284 110.044 21.552 110.476 20.808C110.932 20.04 111.652 19.404 112.636 18.9L120.592 18.684L120.52 20.844H119.656C119.128 20.796 118.588 20.796 118.036 20.844C117.508 20.868 117.016 20.952 116.56 21.096C116.128 21.216 115.768 21.408 115.48 21.672C115.192 21.936 115.048 22.296 115.048 22.752C115.048 23.016 115.108 23.304 115.228 23.616C115.372 23.904 115.564 24.144 115.804 24.336C116.332 24.312 116.872 24.24 117.424 24.12C118 23.976 118.54 23.808 119.044 23.616C119.548 23.424 119.956 23.268 120.268 23.148L120.592 24.66L116.164 27.468ZM130.723 27V10.944L134.143 9.216L135.943 10.944V27H130.723ZM141.667 27V16.596C141.667 15.372 141.439 14.472 140.983 13.896C140.551 13.32 139.975 13.044 139.255 13.068C138.727 13.092 138.139 13.248 137.491 13.536C136.867 13.8 136.231 14.136 135.583 14.544C134.935 14.928 134.323 15.348 133.747 15.804L133.423 14.652C134.455 13.716 135.487 12.888 136.519 12.168C137.575 11.424 138.571 10.812 139.507 10.332C140.443 9.828 141.271 9.492 141.991 9.324C142.471 9.348 142.987 9.456 143.539 9.648C144.091 9.84 144.619 10.116 145.123 10.476C145.651 10.836 146.083 11.292 146.419 11.844C146.539 12.036 146.623 12.3 146.671 12.636C146.743 12.972 146.791 13.428 146.815 14.004C146.863 14.58 146.887 15.348 146.887 16.308V27H141.667ZM128.023 12.204L127.771 10.476C128.707 10.116 129.727 9.828 130.831 9.612C131.959 9.396 133.063 9.264 134.143 9.216L134.287 11.232L131.947 12.672L128.023 12.204ZM128.203 27L128.095 25.776C128.695 25.416 129.379 25.104 130.147 24.84C130.939 24.552 131.635 24.336 132.235 24.192L131.839 27H128.203ZM133.351 27L133.963 23.724C134.683 23.868 135.403 24.072 136.123 24.336C136.867 24.576 137.527 24.876 138.103 25.236L137.959 27H133.351ZM139.687 27L139.579 25.776C140.179 25.416 140.863 25.104 141.631 24.84C142.423 24.552 143.119 24.336 143.719 24.192L143.323 27H139.687ZM144.331 27L144.943 23.724C145.639 23.868 146.419 24.072 147.283 24.336C148.147 24.576 148.867 24.876 149.443 25.236L149.299 27H144.331ZM164.321 27.576C163.913 27.552 163.481 27.408 163.025 27.144C162.569 26.88 162.137 26.52 161.729 26.064C161.345 25.584 161.045 25.068 160.829 24.516L160.469 24.192V15.516C160.469 14.388 160.313 13.56 160.001 13.032C159.713 12.48 159.305 12.084 158.777 11.844C158.321 11.868 157.841 11.928 157.337 12.024C156.833 12.096 156.413 12.192 156.077 12.312L155.429 16.2L152.405 16.308C152.117 15.564 151.901 14.748 151.757 13.86C151.637 12.948 151.601 12.072 151.649 11.232C152.345 10.944 153.113 10.668 153.953 10.404C154.793 10.14 155.633 9.912 156.473 9.72C157.313 9.504 158.093 9.336 158.813 9.216C159.557 9.096 160.157 9.036 160.613 9.036C161.237 9.036 161.837 9.144 162.413 9.36C162.989 9.576 163.529 9.888 164.033 10.296C164.537 10.68 164.957 11.124 165.293 11.628C165.461 11.916 165.569 12.324 165.617 12.852C165.689 13.356 165.725 14.184 165.725 15.336V23.04C165.725 23.28 165.797 23.484 165.941 23.652C166.109 23.796 166.337 23.868 166.625 23.868C166.889 23.868 167.165 23.844 167.453 23.796C167.741 23.748 168.053 23.7 168.389 23.652L168.713 25.272L164.321 27.576ZM157.121 27.468C155.729 27.66 154.565 27.528 153.629 27.072C152.693 26.64 151.985 26.052 151.505 25.308C151.025 24.54 150.785 23.772 150.785 23.004C150.785 22.284 151.001 21.552 151.433 20.808C151.889 20.04 152.609 19.404 153.593 18.9L161.549 18.684L161.477 20.844H160.613C160.085 20.796 159.545 20.796 158.993 20.844C158.465 20.868 157.973 20.952 157.517 21.096C157.085 21.216 156.725 21.408 156.437 21.672C156.149 21.936 156.005 22.296 156.005 22.752C156.005 23.016 156.065 23.304 156.185 23.616C156.329 23.904 156.521 24.144 156.761 24.336C157.289 24.312 157.829 24.24 158.381 24.12C158.957 23.976 159.497 23.808 160.001 23.616C160.505 23.424 160.913 23.268 161.225 23.148L161.549 24.66L157.121 27.468ZM186.951 17.856L186.771 14.472C187.419 14.688 188.055 14.844 188.679 14.94C189.327 15.036 189.903 15.084 190.407 15.084C191.319 15.084 192.087 14.964 192.711 14.724C193.335 14.46 193.827 14.112 194.187 13.68C194.547 13.224 194.811 12.72 194.979 12.168C195.147 11.616 195.231 11.04 195.231 10.44C195.231 9.504 195.051 8.628 194.691 7.812C194.355 6.972 193.815 6.312 193.071 5.832L187.635 6.408L179.967 3.312L191.451 3.024C193.467 3.024 195.171 3.372 196.562 4.068C197.955 4.74 199.023 5.628 199.767 6.732C200.511 7.836 200.883 9.036 200.883 10.332C200.883 11.604 200.523 12.816 199.803 13.968C199.083 15.096 198.062 16.02 196.742 16.74C195.423 17.46 193.863 17.82 192.063 17.82L186.951 17.856ZM179.715 27L179.499 25.848C180.027 25.512 180.591 25.212 181.191 24.948C181.815 24.66 182.439 24.396 183.062 24.156L183.099 27H179.715ZM186.231 27L186.339 24.444L191.307 25.164L191.271 27H186.231ZM182.559 27V3.312H188.031V27H182.559ZM198.075 27L198.183 24.516L203.151 25.164L203.115 27H198.075ZM183.999 5.652L179.931 5.148L179.967 3.312H183.999V5.652ZM195.915 27L190.263 16.416L195.447 16.092L202.179 27H195.915ZM206.133 27V10.944L209.553 9.216L211.353 10.8V27H206.133ZM203.505 27L203.397 25.776C203.997 25.416 204.681 25.104 205.449 24.84C206.241 24.552 206.937 24.336 207.537 24.192L207.141 27H203.505ZM208.905 27L209.517 23.724C210.237 23.868 211.005 24.072 211.821 24.336C212.661 24.576 213.369 24.876 213.945 25.236L213.801 27H208.905ZM203.433 12.204L203.181 10.476C204.117 10.116 205.137 9.828 206.241 9.612C207.369 9.396 208.473 9.264 209.553 9.216L209.697 11.232L207.357 12.672L203.433 12.204ZM209.013 6.912C208.317 6.6 207.621 6.18 206.925 5.652C206.253 5.124 205.689 4.572 205.233 3.996C205.617 3.228 206.073 2.508 206.601 1.836C207.153 1.164 207.729 0.611998 208.329 0.179998C209.025 0.539999 209.697 1.008 210.345 1.584C210.993 2.16 211.521 2.748 211.929 3.348C211.617 4.02 211.197 4.68 210.669 5.328C210.141 5.952 209.589 6.48 209.013 6.912ZM223.708 27.648C222.628 27.648 221.476 27.516 220.252 27.252C219.052 27.012 217.84 26.664 216.616 26.208L219.676 22.356C220.036 22.812 220.504 23.244 221.08 23.652C221.68 24.036 222.388 24.324 223.204 24.516C224.02 24.708 224.908 24.732 225.868 24.588C226.684 23.964 227.296 23.112 227.704 22.032C228.136 20.928 228.352 19.812 228.352 18.684C228.352 17.724 228.196 16.824 227.884 15.984C227.572 15.144 227.128 14.472 226.552 13.968C226 13.464 225.316 13.212 224.5 13.212C223.828 13.212 223.12 13.392 222.376 13.752C221.656 14.112 220.912 14.556 220.144 15.084L219.82 13.608L225.832 9.432C227.056 9.216 228.148 9.288 229.108 9.648C230.092 10.008 230.932 10.596 231.628 11.412C232.324 12.204 232.852 13.14 233.212 14.22C233.596 15.3 233.788 16.464 233.788 17.712C233.788 19.032 233.56 20.292 233.104 21.492C232.672 22.692 232.024 23.76 231.16 24.696C230.32 25.608 229.276 26.328 228.028 26.856C226.78 27.384 225.34 27.648 223.708 27.648ZM216.652 26.208V2.196L220.108 0.503998L221.872 2.124V25.416L216.652 26.208ZM213.952 3.492L213.7 1.764C214.636 1.38 215.656 1.092 216.76 0.899999C217.888 0.683999 219.004 0.551999 220.108 0.503998L220.252 2.484L217.876 3.924L213.952 3.492ZM245.189 27.468C243.725 27.612 242.369 27.492 241.121 27.108C239.873 26.724 238.781 26.136 237.845 25.344C236.933 24.552 236.225 23.592 235.721 22.464C235.217 21.312 234.965 20.052 234.965 18.684C234.965 17.34 235.193 16.092 235.649 14.94C236.129 13.764 236.765 12.744 237.557 11.88C238.373 11.016 239.321 10.344 240.401 9.864C241.481 9.384 242.633 9.144 243.857 9.144C244.769 9.144 245.657 9.288 246.521 9.576C247.409 9.864 248.213 10.308 248.933 10.908C249.653 11.508 250.217 12.264 250.625 13.176C251.033 14.064 251.237 15.12 251.237 16.344L246.449 17.1C246.569 16.212 246.473 15.372 246.161 14.58C245.873 13.764 245.417 13.116 244.793 12.636C244.169 12.132 243.437 11.88 242.597 11.88C241.973 12.24 241.469 12.756 241.085 13.428C240.701 14.1 240.413 14.832 240.221 15.624C240.053 16.416 239.969 17.184 239.969 17.928C239.969 19.224 240.209 20.316 240.689 21.204C241.169 22.092 241.829 22.776 242.669 23.256C243.509 23.712 244.445 23.94 245.477 23.94C246.221 23.94 246.965 23.832 247.709 23.616C248.453 23.376 249.245 23.052 250.085 22.644L250.841 24.552L245.189 27.468ZM249.149 18.432L238.781 18.324L238.493 15.948L249.077 15.372L251.237 16.344L249.149 18.432ZM254.895 27V10.944L258.315 9.216L260.115 10.8V27H254.895ZM252.267 27L252.159 25.776C252.759 25.416 253.443 25.104 254.211 24.84C255.003 24.552 255.699 24.336 256.299 24.192L255.903 27H252.267ZM257.667 27L258.279 23.724C258.999 23.868 259.767 24.072 260.583 24.336C261.423 24.576 262.131 24.876 262.707 25.236L262.563 27H257.667ZM252.195 12.204L251.943 10.476C252.879 10.116 253.899 9.828 255.003 9.612C256.131 9.396 257.235 9.264 258.315 9.216L258.459 11.232L256.119 12.672L252.195 12.204ZM257.775 6.912C257.079 6.6 256.383 6.18 255.687 5.652C255.015 5.124 254.451 4.572 253.995 3.996C254.379 3.228 254.835 2.508 255.363 1.836C255.915 1.164 256.491 0.611998 257.091 0.179998C257.787 0.539999 258.459 1.008 259.107 1.584C259.755 2.16 260.283 2.748 260.691 3.348C260.379 4.02 259.959 4.68 259.431 5.328C258.903 5.952 258.351 6.48 257.775 6.912ZM266.602 27V10.944L270.022 9.216L271.822 10.908V27H266.602ZM270.166 19.116L269.374 16.272L275.458 9.756C276.298 9.42 277.126 9.312 277.942 9.432C278.758 9.528 279.454 9.804 280.03 10.26C280.054 10.716 280.042 11.244 279.994 11.844C279.946 12.444 279.874 13.08 279.778 13.752C279.706 14.4 279.586 15.036 279.418 15.66C279.274 16.284 279.118 16.848 278.95 17.352H276.07L275.422 13.248C274.822 13.632 274.222 14.088 273.622 14.616C273.046 15.144 272.458 15.78 271.858 16.524C271.282 17.244 270.718 18.108 270.166 19.116ZM263.902 12.204L263.65 10.476C264.586 10.116 265.606 9.828 266.71 9.612C267.838 9.396 268.942 9.264 270.022 9.216L270.166 11.232L267.826 12.672L263.902 12.204ZM264.046 27L263.938 25.776C264.538 25.416 265.222 25.104 265.99 24.84C266.782 24.552 267.478 24.336 268.078 24.192L267.682 27H264.046ZM270.49 27L271.102 23.868C271.582 23.94 272.098 24.048 272.65 24.192C273.202 24.312 273.742 24.468 274.27 24.66C274.822 24.828 275.29 25.02 275.674 25.236L275.53 27H270.49ZM289.243 27.72C287.683 27.72 286.231 27.348 284.887 26.604C283.543 25.836 282.451 24.756 281.611 23.364C280.795 21.948 280.387 20.268 280.387 18.324C280.387 16.356 280.795 14.688 281.611 13.32C282.451 11.952 283.531 10.92 284.851 10.224C286.171 9.504 287.599 9.144 289.135 9.144C290.671 9.144 292.087 9.504 293.383 10.224C294.703 10.944 295.759 12 296.551 13.392C297.343 14.784 297.739 16.488 297.739 18.504C297.739 20.496 297.343 22.176 296.551 23.544C295.783 24.912 294.751 25.956 293.455 26.676C292.183 27.372 290.779 27.72 289.243 27.72ZM289.495 24.768C289.903 24.768 290.323 24.708 290.755 24.588C291.211 24.252 291.559 23.784 291.799 23.184C292.039 22.584 292.195 21.912 292.267 21.168C292.363 20.4 292.411 19.656 292.411 18.936C292.411 17.712 292.291 16.596 292.051 15.588C291.835 14.556 291.463 13.74 290.935 13.14C290.407 12.516 289.723 12.204 288.883 12.204C288.523 12.204 288.175 12.252 287.839 12.348C287.503 12.444 287.227 12.564 287.011 12.708C286.579 13.284 286.255 14.076 286.039 15.084C285.847 16.068 285.751 17.124 285.751 18.252C285.751 19.404 285.871 20.484 286.111 21.492C286.375 22.476 286.783 23.268 287.335 23.868C287.887 24.468 288.607 24.768 289.495 24.768Z" fill="white"/>
</svg>
